# xmcd
#
# Track frame offsets:
#	180
#	18058
#	38757
#	80546
#	97662
#	122961
#	143405
#	177505
#	214083
#
# Disc length: 3178 seconds
#
# Revision: 0
# Processed by: cddbd v1.5.1PL2 Copyright (c) Steve Scherf et al.
# Submitted via: audiograbber 1.83.01
#
DISCID=690c6809
DTITLE=Harper - Live At The Soup Kitchen
DYEAR=1996
DGENRE=Blues
TTITLE0=I Haven't Felt This Good In A Long Time
TTITLE1=Borderline
TTITLE2=Help Me
TTITLE3=World Goes Round
TTITLE4=Blue Steel And Ice
TTITLE5=Why
TTITLE6=Use Me
TTITLE7=Tears Of Ice
TTITLE8=Don't Hold Back
EXTD=
EXTT0=
EXTT1=
EXTT2=
EXTT3=
EXTT4=
EXTT5=
EXTT6=
EXTT7=
EXTT8=
PLAYORDER=
